<svg id="Imposter" xmlns="http://www.w3.org/2000/svg" xmlns:xlink="http://www.w3.org/1999/xlink" viewBox="0 0 75.1058 108.5939">
  <defs>
    <style>
      .cls-1, .cls-12, .cls-5, .cls-6, .cls-8, .cls-9 {
        fill: none;
      }

      .cls-2, .cls-4 {
        fill: aqua;
      }

      .cls-11, .cls-12, .cls-2, .cls-3, .cls-5, .cls-6, .cls-8, .cls-9 {
        stroke: #000;
      }

      .cls-10, .cls-11, .cls-12, .cls-2, .cls-5, .cls-6, .cls-8, .cls-9 {
        stroke-miterlimit: 10;
      }

      .cls-3, .cls-7 {
        fill: #ff4557;
      }

      .cls-3 {
        stroke-miterlimit: 20;
      }

      .cls-12, .cls-5 {
        stroke-width: 0.75px;
      }

      .cls-11, .cls-12, .cls-6 {
        stroke-linecap: round;
      }

      .cls-9 {
        stroke-width: 0.5px;
      }

      .cls-10 {
        fill: #020202;
        stroke: #020202;
      }

      .cls-11 {
        fill: #ff4254;
      }

      .cls-13 {
        clip-path: url(#clip-path);
      }

      .cls-14 {
        fill: #010202;
      }

      .cls-15 {
        fill: #020404;
      }
    </style>
    <clipPath id="clip-path" transform="translate(-14.1446 -0.7031)">
      <rect class="cls-1" x="59.9303" y="43.7031" width="13.5398" height="13.5398"/>
    </clipPath>
  </defs>
  <title>SUP_LOGO</title>
  <path id="Back_type_2" data-name="Back type 2" class="cls-2" d="M30.5076,18.6768,28.1,67.8954s-9.6374-.97-12.01-2.0527c-4.0068-1.8285,1.83-32.1376-.4391-45.5838C15.3687,18.5827,30.5076,18.6768,30.5076,18.6768Z" transform="translate(-14.1446 -0.7031)"/>
  <path id="body_fill" data-name="body fill" class="cls-3" d="M45.8631,1.5735A27.044,27.044,0,0,0,35.91,5.8585C28.808,11.1027,28.1775,21.6,27.7138,49.0042c-.5345,31.584,5.1489,59.8007,11.5968,59.7927,8.4791-.01,11.1927-41.1724,11.4837-41.2216s8.9216,38.4766,14.44,40.8452c7.159,3.0729,8.4867-27.9091,7.5612-60.4616-.2112-7.4268-.6007-13.3931-1.1474-18.2226-.0157-.1388,5.2368-1.0592,5.2208-1.1961C75.313,15.2019,72.5308,10.7,68.9888,7.9271a36.1925,36.1925,0,0,0-9.66-5.0238A26.6316,26.6316,0,0,0,45.8631,1.5735Z" transform="translate(-14.1446 -0.7031)"/>
  <path id="eye_fill" data-name="eye fill" class="cls-4" d="M88.4189,13.31a1.2382,1.2382,0,0,0-1.2753-.6583L47.16,18.4369A3.5043,3.5043,0,0,0,45.24,19.43h0a2.48,2.48,0,0,0-.54,2.6566l4.2357,10.69c.5822,2.2451,3.7709,1.67,3.9953,1.63l32.64-5.9143a3.6716,3.6716,0,0,0,2.12-1.21l.8185-.9443a1.504,1.504,0,0,0,.3661-1.0234l.0005-10.6709a1.8621,1.8621,0,0,0-.2094-.8582Z" transform="translate(-14.1446 -0.7031)"/>
  <path id="eye_lines" data-name="eye lines" class="cls-5" d="M88.4189,13.31a1.2382,1.2382,0,0,0-1.2753-.6583L47.16,18.4369A3.5043,3.5043,0,0,0,45.24,19.43h0a2.48,2.48,0,0,0-.54,2.6566l4.2357,10.69c.5822,2.2451,3.7709,1.67,3.9953,1.63l32.64-5.9143a3.6716,3.6716,0,0,0,2.12-1.21l.8185-.9443a1.504,1.504,0,0,0,.3661-1.0234l.0005-10.6709a1.8621,1.8621,0,0,0-.2094-.8582Z" transform="translate(-14.1446 -0.7031)"/>
  <g id="Book">
    <path id="book_right" data-name="book right" class="cls-4" d="M74.1,51.1436s.1533,18.5256,0,19.0621-12.9513-8.0649-12.9513-8.0649-1.9542-1.686-1.9159-2.4907c.0317-.6656.7931-14.8445,1.1112-19.4765a.77.77,0,0,1,1.2771-.5255Z" transform="translate(-14.1446 -0.7031)"/>
    <path id="book_right_lines" data-name="book right lines" class="cls-6" d="M59.2322,61.5126c.0317-.6656.7937-17.3151,1.1118-21.947a.7705.7705,0,0,1,1.2771-.5256l1.2816,1.1806L74.1,50.5356s.1533,18.5256,0,19.062-12.9513-8.0648-12.9513-8.0648" transform="translate(-14.1446 -0.7031)"/>
    <path id="book_left" data-name="book left" class="cls-7" d="M74.4449,50.4005l.2838,18.6611s10.0236-6.1877,10.1386-6.6475c0,0-.728-22.6458-.9579-22.9523S74.4449,50.4005,74.4449,50.4005Z" transform="translate(-14.1446 -0.7031)"/>
    <path id="book_left_lines" data-name="book left lines" class="cls-8" d="M74.7287,50.2472V69.0616s10.0236-6.1877,10.1386-6.6475c0,0-.728-22.6458-.9579-22.9523S74.7287,50.2472,74.7287,50.2472Z" transform="translate(-14.1446 -0.7031)"/>
    <path id="pages_right" data-name="pages right" class="cls-4" d="M72.9065,49.3841l-9.9-10.2433c-.49-.49-.6555-.7411-.1139-1.1744a20.8572,20.8572,0,0,1,1.7818-1.3171.4385.4385,0,0,1,.4406-.004c5.3359,2.9944,9.33,9.9618,9.33,9.9618a4.6984,4.6984,0,0,1,.65,2.481l-.65.4725C74.2069,49.989,73.2531,49.7306,72.9065,49.3841Z" transform="translate(-14.1446 -0.7031)"/>
    <path id="pages_right_lines" data-name="pages right lines" class="cls-8" d="M72.9065,49.3841l-9.9-10.2433c-.49-.49-.6555-.7411-.1139-1.1744a20.8572,20.8572,0,0,1,1.7818-1.3171.4385.4385,0,0,1,.4406-.004c5.3359,2.9944,9.33,9.9618,9.33,9.9618a4.6984,4.6984,0,0,1,.65,2.481l-.65.4725C74.2069,49.989,73.2531,49.7306,72.9065,49.3841Z" transform="translate(-14.1446 -0.7031)"/>
    <path class="cls-9" d="M66.3216,39.7857c2.2033,2.0559,7.0453,8.0826,8.4246,9.3886S68.08,40.7575,66.3216,39.7857Z" transform="translate(-14.1446 -0.7031)"/>
    <ellipse class="cls-10" cx="74.4359" cy="50.473" rx="0.5217" ry="0.9893" transform="translate(-19.1802 7.6688) rotate(-6.2271)"/>
    <path class="cls-11" d="M81.6486,38.4454a2.0022,2.0022,0,0,1,.843,1.6764s-7.0409,7.74-6.9259,8.1616S73.64,44.7166,73.64,44.7166s4.2589-5.6964,8.5832-7.1525" transform="translate(-14.1446 -0.7031)"/>
    <path class="cls-12" d="M75.1369,46.6837a15.52,15.52,0,0,1,5.4771-6.3224" transform="translate(-14.1446 -0.7031)"/>
    <g class="cls-13">
      <g class="cls-13">
        <path class="cls-14" d="M67.0417,49.2919c.1822-.2122.2579-.3067.3866-.3582a.2437.2437,0,0,1,.2888.3854c-.18.2188-.3944.41-.5676.634a4.5144,4.5144,0,0,0-.7663,1.492c-.0793.264-.1081.4975.1432.6181a.6213.6213,0,0,0,.5644-.0679,5.13,5.13,0,0,0,1.1157-.774c.4291-.3728.8524-.7523,1.2892-1.1158.2151-.1791.4948-.4334.73-.12.2277.3036-.0779.4046-.2454.5631-.1083.1027-.1607.143-.2242.21a12.56,12.56,0,0,1-2.7145,2.0474c-1.1455.2335-1.4841-.9951-1.303-1.5947a8.1636,8.1636,0,0,1,1.303-1.9194" transform="translate(-14.1446 -0.7031)"/>
        <path class="cls-14" d="M66.0275,49.7267a2.0313,2.0313,0,0,0-.3774-.8324c-.4969-.7933-1.02-1.57-1.5312-2.3547-.0922-.1414-.2308-.3255-.1177-.4615.17-.2043.3646-.01.5135.09.6129.4107,1.2134.84,1.8212,1.2583.1454.1.3229.18.4561.0148.1019-.1261.0007-.2707-.0916-.3774a5.93,5.93,0,0,0-2.541-1.8c-.6908-.2389-1.0339.09-.9467.8132a3.0118,3.0118,0,0,0,.6147,1.2938A21.4154,21.4154,0,0,1,65.2546,49.59c.2494.4961.0972.7337-.4538.803a1.7919,1.7919,0,0,1-1.5564-.5283,3.9159,3.9159,0,0,1-1.1315-1.5723c-.0682-.2259-.1653-.3757-.4061-.31a.3892.3892,0,0,0-.2683.54,1.7659,1.7659,0,0,0,.2581.5332,11.2758,11.2758,0,0,0,.9009,1.1312,2.4554,2.4554,0,0,0,2.6918.7945,1.2629,1.2629,0,0,0,.7382-1.255" transform="translate(-14.1446 -0.7031)"/>
        <path class="cls-15" d="M69.7144,51.3236a.4809.4809,0,0,1,.459-.53,1.2939,1.2939,0,0,1,.8121.2971,6.1227,6.1227,0,0,1,1.3664,1.2568c.1029.1357.1793.3072.0315.4586-.1512.1549-.3247.0714-.4595-.0288a7.1754,7.1754,0,0,0-.7214-.5884c-.172-.0957-.3227-.1219-.3132-.0087a.73.73,0,0,0,.0942.2548,5.8958,5.8958,0,0,1,.5141,1.5166c.1117.765-.1876,1.0732-.949.964a5.9132,5.9132,0,0,1-2.6353-1.0911.8692.8692,0,0,1-.413-.5508.2935.2935,0,0,1,.3447-.3316,1.1814,1.1814,0,0,1,.4513.2762,5.0124,5.0124,0,0,0,1.907.91c.5674.1545.6569.0488.4893-.5368a7.7566,7.7566,0,0,0-.7463-1.6209,1.7,1.7,0,0,1-.2319-.6465" transform="translate(-14.1446 -0.7031)"/>
      </g>
    </g>
  </g>
</svg>
